<?xml version="1.0" encoding="utf-8"?>
<!-- Generator: Adobe Illustrator 17.0.0, SVG Export Plug-In . SVG Version: 6.00 Build 0)  -->
<!DOCTYPE svg PUBLIC "-//W3C//DTD SVG 1.1//EN" "http://www.w3.org/Graphics/SVG/1.1/DTD/svg11.dtd">
<svg version="1.1" id="Camada_1" xmlns="http://www.w3.org/2000/svg" xmlns:xlink="http://www.w3.org/1999/xlink" x="0px" y="0px"
	 width="40px" height="40px" viewBox="22.5 0 40 40" enable-background="new 22.5 0 40 40" xml:space="preserve">
<g>
	<path fill="#8047F8" d="M54.435,5.248c-0.324-0.497-0.798-0.511-1.338-0.527c-0.061-0.002-0.123-0.004-0.186-0.006
		c-0.048-0.002-0.1-0.001-0.156,0c-0.219,0.004-0.475,0.008-0.604-0.176c-0.15-0.213-0.135-0.625-0.124-0.966
		c0.004-0.108,0.007-0.208,0.005-0.293c-0.021-0.79-0.065-1.63-0.37-1.911c-0.23-0.211-0.918-0.181-1.553-0.155
		c-0.206,0.009-0.406,0.017-0.583,0.017H36.014c-0.272,0-0.557-0.022-0.837-0.044c-0.546-0.042-1.073-0.083-1.447,0.044
		c-0.543,0.186-0.58,1.161-0.615,2.08L33.112,3.36c-0.029,0.758-0.217,1.343-0.84,1.284c-0.724-0.067-1.445-0.089-1.773,0.567
		c-0.387,0.776-0.307,1.588-0.164,3.042c0.02,0.208,0.042,0.429,0.064,0.664h24.245c0.014-0.172,0.029-0.342,0.043-0.51
		C54.801,7.1,54.9,5.96,54.435,5.248z"/>
	<path fill="#8047F8" d="M32.217,10.361c0.379,5.125,0.753,10.255,1.128,15.386l0,0.003c0.203,2.786,0.407,5.572,0.611,8.357h0.774
		c0.053,0.436,0.113,0.974,0.177,1.541c0.129,1.152,0.272,2.424,0.392,3.206h0.086c0.788-0.288,6.235-2.617,6.238-11.886
		c-0.001-0.026,0-0.053,0.003-0.079h-1.346c-0.065-0.001-0.128-0.022-0.18-0.062c-0.051-0.039-0.088-0.095-0.105-0.157
		c-0.131-0.324-0.237-0.657-0.316-0.997c-0.792,0.447-1.42,1.13-1.797,1.951c-0.357-0.841-0.404-1.779-0.132-2.651
		c0.272-0.872,0.845-1.621,1.619-2.117c0.01-2.705,1.023-5.313,2.847-7.329l0.028-0.025c0.053-0.046,0.121-0.071,0.191-0.072
		c0.041,0,0.081,0.009,0.118,0.026c0.038,0.017,0.071,0.041,0.099,0.071c1.845,2.019,2.853,4.652,2.821,7.373
		c0.788,0.483,1.373,1.231,1.645,2.108c0.272,0.876,0.214,1.82-0.165,2.657c-0.374-0.822-1.003-1.506-1.797-1.951
		c-0.048,0.33-0.138,0.652-0.266,0.96c-0.044,0.131-0.133,0.216-0.221,0.216h-1.435c0.002,0.016,0.004,0.031,0.005,0.047
		l0.001,0.004v0.008c0,0.014,0,0.027,0,0.041c0.02,9.536,5.811,11.7,6.299,11.866h0.167c0.043-0.751,0.181-1.787,0.317-2.798
		c0.093-0.696,0.185-1.38,0.242-1.95h0.783c0.25-3.508,0.508-7.006,0.766-10.504l0-0.002l0-0.001
		c0.33-4.475,0.659-8.949,0.974-13.445H32.267C32.208,10.166,32.212,10.263,32.217,10.361z M42.433,15.429h-0.002h0.003H42.433z"/>
</g>
</svg>